<?xml version="1.0" encoding="utf-8"?>
<!-- Generator: Adobe Illustrator 19.0.0, SVG Export Plug-In . SVG Version: 6.00 Build 0)  -->
<svg version="1.1" id="Layer_1" xmlns="http://www.w3.org/2000/svg" xmlns:xlink="http://www.w3.org/1999/xlink" x="0px" y="0px"
	 viewBox="-44 -49.3 110 130" style="enable-background:new -44 -49.3 110 130;" xml:space="preserve">
<style type="text/css">
	.st0{fill:none;stroke:#EDEDED;stroke-width:2;stroke-miterlimit:10;}
</style>
<g>
	<g>
		<g>
			<g>
				<g>
					<circle class="st0" cx="38.1" cy="33.7" r="13"/>
					<path class="st0" d="M53.6,43.8c-0.7-0.6-1.7-0.4-2.2,0.3c-2.9,4.2-7.8,7-13.4,7c-5.3,0-10-2.5-13-6.5
						c-0.5-0.7-1.6-0.8-2.3-0.2c-4.4,4.2-7.1,10.1-7.1,16.6v13.1c0,0.8,0.7,1.5,1.5,1.5h42.8c0.8,0,1.5-0.7,1.5-1.5V61
						C61.4,54.2,58.4,48,53.6,43.8z"/>
				</g>
				<g>
					<circle class="st0" cx="-17" cy="33.7" r="13"/>
					<path class="st0" d="M-1.5,43.8c-0.7-0.6-1.7-0.4-2.2,0.3c-2.9,4.2-7.8,7-13.4,7c-5.3,0-10-2.5-13-6.5
						c-0.5-0.7-1.6-0.8-2.3-0.2c-4.4,4.2-7.1,10.1-7.1,16.6v13.1c0,0.8,0.7,1.5,1.5,1.5H4.8c0.8,0,1.5-0.7,1.5-1.5V61
						C6.3,54.2,3.3,48-1.5,43.8z"/>
				</g>
				<polyline class="st0" points="-8,-7.5 -8,-1 31.9,-1 41.2,12.2 41.2,-36.9 31.5,-36.9 				"/>
				<polygon class="st0" points="31.5,-44.3 31.5,-7.5 -12.4,-7.5 -21.7,12.2 -21.7,-44.3 				"/>
			</g>
		</g>
	</g>
</g>
</svg>
