<?xml version="1.0" encoding="utf-8"?>
<!-- Generator: Adobe Illustrator 19.0.0, SVG Export Plug-In . SVG Version: 6.00 Build 0)  -->
<svg version="1.1" id="Layer_1" xmlns="http://www.w3.org/2000/svg" xmlns:xlink="http://www.w3.org/1999/xlink" x="0px" y="0px"
	 viewBox="-24 -39.3 150 110" style="enable-background:new -24 -39.3 150 110;" xml:space="preserve">
<style type="text/css">
	.st0{fill:none;stroke:#EDEDED;stroke-width:2;stroke-miterlimit:10;}
	.st1{fill:#EDEDED;}
</style>
<g>
	<g>
		<path class="st0" d="M-4.1-6.4v-4.8c0-3.2,2.6-5.7,5.7-5.7h0.8c0-5.3,4.3-9.9,9.5-9.9h35.3c5.3,0,9.5,4.6,9.5,9.9h43.6
			c3.2,0,5.7,2.6,5.7,5.7v4.8"/>
		<g>
			<g>
				<path class="st0" d="M111.3-5.5c2.6,0,4.7,2.1,4.7,4.7l-9.9,54.3c0,2.6-2.1,4.7-4.7,4.7H0.6c-2.6,0-4.7-2.1-4.7-4.7L-14-0.8
					c0-2.6,2.1-4.7,4.7-4.7H111.3"/>
			</g>
		</g>
		<g>
			<g>
				<polyline class="st0" points="37.4,46.7 53.4,46.7 70.9,29.3 95.6,29.3 				"/>
				<polyline class="st0" points="37.4,38.2 53.4,38.2 70.9,20.8 95.6,20.8 				"/>
				<circle class="st0" cx="34.8" cy="46.7" r="2.5"/>
				<circle class="st0" cx="34.8" cy="38.2" r="2.5"/>
				<polyline class="st0" points="37.4,29.8 53.4,29.8 70.9,12.3 95.6,12.3 				"/>
				<circle class="st0" cx="34.8" cy="29.8" r="2.5"/>
				<circle class="st0" cx="98.1" cy="29.3" r="2.5"/>
				<circle class="st0" cx="98.1" cy="20.8" r="2.5"/>
				<circle class="st0" cx="98.1" cy="12.3" r="2.5"/>
			</g>
		</g>
		<path class="st0" d="M31.3,18.6v-6.2h-3c-0.3-1.2-0.8-2.3-1.4-3.3L29,7l-4.4-4.4l-2.1,2.1c-1-0.6-2.1-1.1-3.3-1.4v-3H13v3
			c-1.2,0.3-2.3,0.8-3.3,1.4L7.6,2.6L3.2,7l2.1,2.1c-0.6,1-1.1,2.1-1.4,3.3h-3v6.2h3c0.3,1.2,0.8,2.3,1.4,3.3L3.2,24l4.4,4.4
			l2.1-2.1c1,0.6,2.1,1.1,3.3,1.4v3h6.2v-3c1.2-0.3,2.3-0.8,3.3-1.4l2.1,2.1L29,24l-2.1-2.1c0.6-1,1.1-2.1,1.4-3.3
			C28.3,18.6,31.3,18.6,31.3,18.6z"/>
		<g>
			<g>
				<g>
					<g>
						<g>
							<path class="st1" d="M16.3,7.3c0.1,0.1,0.3,0.3,0.4,0.4c0,0,0,0,0.1,0.1l-0.1,0.1c-0.2,0.1-0.3,0.2-0.5,0.3
								c-0.5,0.3-1,0.6-1.6,0.8c-0.2,0.1-0.3,0.2-0.5,0.3c-0.1,0.1-0.2,0.2-0.2,0.3c0,0.2,0,0.4,0,0.6c0,0.2,0,0.4,0,0.5
								c0,0,0,0,0,0.1c-0.2,0.2-0.3,0.3-0.5,0.5c-0.6,0.6-1.2,1.1-1.7,1.7h-0.1c-0.2,0-0.4-0.1-0.6,0c-0.1,0-0.3,0.1-0.4,0.1
								c-0.2,0.1-0.3,0.3-0.3,0.5s0,0.5,0.1,0.7c0,0,0,0,0,0.1l0,0c-0.2,0.2-0.4,0.4-0.6,0.6c-0.1,0.1-0.3,0.2-0.5,0.1
								C9.2,15.1,9.1,15,9,15c-0.1-0.1-0.2-0.1-0.3-0.2c-0.2-0.2-0.5-0.5-0.7-0.7c-0.1-0.1-0.2-0.2-0.2-0.3
								c-0.1-0.1-0.1-0.2-0.1-0.3l0,0v-0.1l0,0c0-0.1,0.1-0.2,0.1-0.2C8,13,8.2,12.8,8.4,12.6c0,0,0,0,0.1,0s0.3,0.1,0.4,0.1
								c0.2,0,0.3,0,0.5,0c0.3-0.1,0.4-0.2,0.5-0.5c0-0.1,0-0.2,0-0.4s0-0.3-0.1-0.5c0,0,0,0,0-0.1l0,0c0.9-0.9,1.9-1.9,2.8-2.8
								c0.1-0.1,0.2-0.1,0.3-0.2H13C13.3,8.1,13.6,8,14,8c0.3-0.1,0.6-0.1,0.9-0.2c0.3,0,0.5-0.1,0.8-0.1
								C15.8,7.3,16.1,7.3,16.3,7.3L16.3,7.3L16.3,7.3z"/>
						</g>
					</g>
					<g>
						<path class="st1" d="M14,11.3C14,11.3,14,11.4,14,11.3c1.5,1.5,3.3,3.3,4.7,4.7c1.9,1.9,3.8,3.8,5.6,5.6c0,0,0.1,0.1,0.1,0.2
							c0,0.1,0.1,0.1,0.1,0.2c0.1,0.1,0.1,0.3,0,0.4c0,0.1-0.1,0.1-0.1,0.2c0,0,0,0.1-0.1,0.1c-0.2,0.3-0.5,0.5-0.7,0.7
							c-0.1,0.1-0.1,0.1-0.2,0.1c-0.2,0.1-0.3,0.1-0.5,0c-0.1-0.1-0.2-0.1-0.3-0.2c-0.3-0.3-0.5-0.5-0.8-0.8
							c-2.2-2.2-4.4-4.4-6.6-6.6c-0.9-0.9-2.1-2.1-2.9-2.9l0,0C12.9,12.5,13.4,11.9,14,11.3z"/>
					</g>
					<path class="st1" d="M13,20.3c0,0.2,0.1,0.3,0.1,0.4c0.1,0.8,0,1.5-0.6,2.1c-0.4,0.4-0.8,0.6-1.3,0.7c-0.3,0.1-0.5,0.1-0.8,0.1
						c-1-0.1-1.8-0.7-2.1-1.7c-0.1-0.3-0.1-0.6-0.1-0.8c0-0.6,0.2-1.2,0.7-1.6c0.4-0.4,0.8-0.6,1.4-0.7c0.4-0.1,0.9,0,1.3,0.1l0,0
						l0,0c0-0.1,0.1-0.2,0.2-0.2c0.7-0.7,1.9-1.9,2.6-2.6l0,0c0.5,0.5,1,1,1.5,1.5l0,0c-0.6,0.6-1.9,1.9-2.5,2.5
						C13.3,20.1,13.2,20.2,13,20.3L13,20.3z M9.4,21.1c0,0.7,0.5,1.3,1.3,1.3c0.7,0,1.3-0.6,1.3-1.3s-0.6-1.3-1.3-1.3
						C10,19.8,9.4,20.4,9.4,21.1z"/>
					<g>
						<path class="st1" d="M24.5,10.1c0,0.3,0,0.5,0,0.7c0,0.3-0.1,0.5-0.2,0.8c-0.4,1-1.2,1.7-2.2,2c-0.3,0.1-0.6,0.1-1,0.1
							s-0.7-0.1-1.1-0.3c0,0,0,0-0.1,0c-0.3,0.3-1.2,1.2-1.6,1.6l0,0c-0.5-0.5-1-1-1.5-1.5c0.3-0.3,1.3-1.3,1.6-1.6l0,0
							c-0.2-0.4-0.3-0.7-0.3-1.1C18,10.2,18.2,9.5,18.5,9c0.4-0.7,1-1.1,1.7-1.3c0.2-0.1,0.5-0.1,0.7-0.1s0.5,0,0.7,0c0,0,0,0,0.1,0
							c0,0,0,0-0.1,0.1c-0.5,0.5-1,1-1.5,1.5L20,9.3c-0.1,0.4-0.2,0.9-0.3,1.3v0.1c0.5,0.5,1,1,1.5,1.5h0.1c0.4-0.1,0.9-0.2,1.3-0.3
							c0,0,0.1,0,0.1-0.1C23.4,11.1,23.9,10.6,24.5,10.1C24.4,10.1,24.5,10.1,24.5,10.1z"/>
					</g>
				</g>
			</g>
		</g>
	</g>
</g>
</svg>
