<?xml version="1.0" encoding="utf-8"?>
<!-- Generator: Adobe Illustrator 18.0.0, SVG Export Plug-In . SVG Version: 6.00 Build 0)  -->
<!DOCTYPE svg PUBLIC "-//W3C//DTD SVG 1.1//EN" "http://www.w3.org/Graphics/SVG/1.1/DTD/svg11.dtd">
<svg version="1.1" id="Layer_1" xmlns="http://www.w3.org/2000/svg" xmlns:xlink="http://www.w3.org/1999/xlink" x="0px" y="0px"
	 viewBox="0 0 110 130" enable-background="new 0 0 110 130" xml:space="preserve">
<g>
	<g>
		<g>
			<g>
				<g>
					<circle fill="none" stroke="#4A4A49" stroke-width="2" stroke-miterlimit="10" cx="82.1" cy="83" r="13"/>
					<path fill="none" stroke="#4A4A49" stroke-width="2" stroke-miterlimit="10" d="M97.6,93.1c-0.7-0.6-1.7-0.4-2.2,0.3
						c-2.9,4.2-7.8,7-13.4,7c-5.3,0-10-2.5-13-6.5c-0.5-0.7-1.6-0.8-2.3-0.2c-4.4,4.2-7.1,10.1-7.1,16.6v13.1c0,0.8,0.7,1.5,1.5,1.5
						h42.8c0.8,0,1.5-0.7,1.5-1.5v-13.1C105.4,103.5,102.4,97.3,97.6,93.1z"/>
				</g>
				<g>
					<circle fill="none" stroke="#4A4A49" stroke-width="2" stroke-miterlimit="10" cx="27" cy="83" r="13"/>
					<path fill="none" stroke="#4A4A49" stroke-width="2" stroke-miterlimit="10" d="M42.5,93.1c-0.7-0.6-1.7-0.4-2.2,0.3
						c-2.9,4.2-7.8,7-13.4,7c-5.3,0-10-2.5-13-6.5c-0.5-0.7-1.6-0.8-2.3-0.2c-4.4,4.2-7.1,10.1-7.1,16.6v13.1c0,0.8,0.7,1.5,1.5,1.5
						h42.8c0.8,0,1.5-0.7,1.5-1.5v-13.1C50.3,103.5,47.3,97.3,42.5,93.1z"/>
				</g>
				<polyline fill="none" stroke="#4A4A49" stroke-width="2" stroke-miterlimit="10" points="36,41.8 36,48.3 75.9,48.3 85.2,61.5 
					85.2,12.4 75.5,12.4 				"/>
				<polygon fill="none" stroke="#4A4A49" stroke-width="2" stroke-miterlimit="10" points="75.5,5 75.5,41.8 31.6,41.8 22.3,61.5 
					22.3,5 				"/>
			</g>
		</g>
	</g>
</g>
</svg>
