<?xml version="1.0" encoding="utf-8"?>
<!-- Generator: Adobe Illustrator 19.0.0, SVG Export Plug-In . SVG Version: 6.00 Build 0)  -->
<svg version="1.1" id="Layer_1" xmlns="http://www.w3.org/2000/svg" xmlns:xlink="http://www.w3.org/1999/xlink" x="0px" y="0px"
	 viewBox="-29 -39.3 140 110" style="enable-background:new -29 -39.3 140 110;" xml:space="preserve">
<style type="text/css">
	.st0{fill:none;stroke:#EDEDED;stroke-width:2;stroke-miterlimit:10;}
	.st1{fill:#EDEDED;}
</style>
<g>
	<g>
		<g>
			<rect x="1.5" y="-11.7" class="st0" width="78.9" height="78.9"/>
			<g>
				<line class="st0" x1="-24.1" y1="5" x2="-9.2" y2="5"/>
				<line class="st0" x1="-24.1" y1="55.5" x2="-9.2" y2="55.5"/>
				<line class="st0" x1="-24.1" y1="30.3" x2="-9.2" y2="30.3"/>
			</g>
			<g>
				<line class="st0" x1="91.1" y1="5" x2="105.9" y2="5"/>
				<line class="st0" x1="91.1" y1="55.5" x2="105.9" y2="55.5"/>
				<line class="st0" x1="91.1" y1="30.3" x2="105.9" y2="30.3"/>
			</g>
		</g>
		<g>
			<polyline class="st0" points="64.3,9.3 45.9,9.3 32.6,22.6 15.7,22.6 			"/>
			<polyline class="st0" points="64.3,22.3 45.9,22.3 32.6,35.6 15.7,35.6 			"/>
			<circle class="st0" cx="67.5" cy="9.3" r="3"/>
			<circle class="st0" cx="67.5" cy="22.3" r="3"/>
			<polyline class="st0" points="64.3,35.3 45.9,35.3 32.6,48.6 15.7,48.6 			"/>
			<circle class="st0" cx="67.5" cy="35.3" r="3"/>
			<circle class="st0" cx="13.5" cy="22.6" r="3"/>
			<circle class="st0" cx="13.5" cy="35.6" r="3"/>
			<circle class="st0" cx="13.5" cy="48.6" r="3"/>
		</g>
		<g>
			
				<rect x="40" y="-38.9" transform="matrix(-0.8192 -0.5736 0.5736 -0.8192 85.8378 12.6004)" class="st1" width="9.8" height="63.3"/>
			<polygon class="st1" points="14.8,36 21,18.4 29.1,24.1 			"/>
		</g>
	</g>
</g>
</svg>
