<?xml version="1.0" encoding="utf-8"?>
<!-- Generator: Adobe Illustrator 18.0.0, SVG Export Plug-In . SVG Version: 6.00 Build 0)  -->
<!DOCTYPE svg PUBLIC "-//W3C//DTD SVG 1.1//EN" "http://www.w3.org/Graphics/SVG/1.1/DTD/svg11.dtd">
<svg version="1.1" id="Layer_1" xmlns="http://www.w3.org/2000/svg" xmlns:xlink="http://www.w3.org/1999/xlink" x="0px" y="0px"
	 viewBox="0 0 150 110" enable-background="new 0 0 150 110" xml:space="preserve">
<g>
	<g>
		<path fill="none" stroke="#4A4A49" stroke-width="2" stroke-miterlimit="10" d="M19.9,32.9v-4.8c0-3.2,2.6-5.7,5.7-5.7h0.8
			c0-5.3,4.3-9.9,9.5-9.9h35.3c5.3,0,9.5,4.6,9.5,9.9h43.6c3.2,0,5.7,2.6,5.7,5.7v4.8"/>
		<g>
			<g>
				<path fill="#4A4A49" d="M135.3,33.8c2.6,0,4.7,2.1,4.7,4.7l-9.9,54.3c0,2.6-2.1,4.7-4.7,4.7H24.6c-2.6,0-4.7-2.1-4.7-4.7
					L10,38.5c0-2.6,2.1-4.7,4.7-4.7H135.3 M135.3,31.8H14.7c-3.7,0-6.7,3-6.7,6.7v0.2l0,0.2L17.9,93c0.1,3.6,3.1,6.5,6.7,6.5h100.9
					c3.6,0,6.6-2.9,6.7-6.5l9.8-54.1l0-0.2v-0.2C142,34.8,139,31.8,135.3,31.8L135.3,31.8z"/>
			</g>
		</g>
		<g>
			<g>
				<polyline fill="none" stroke="#4A4A49" stroke-width="2" stroke-miterlimit="10" points="61.4,86 77.4,86 94.9,68.6 119.6,68.6 
									"/>
				<polyline fill="none" stroke="#4A4A49" stroke-width="2" stroke-miterlimit="10" points="61.4,77.5 77.4,77.5 94.9,60.1 
					119.6,60.1 				"/>
				<circle fill="none" stroke="#4A4A49" stroke-width="2" stroke-miterlimit="10" cx="58.8" cy="86" r="2.5"/>
				<circle fill="none" stroke="#4A4A49" stroke-width="2" stroke-miterlimit="10" cx="58.8" cy="77.5" r="2.5"/>
				<polyline fill="none" stroke="#4A4A49" stroke-width="2" stroke-miterlimit="10" points="61.4,69.1 77.4,69.1 94.9,51.6 
					119.6,51.6 				"/>
				<circle fill="none" stroke="#4A4A49" stroke-width="2" stroke-miterlimit="10" cx="58.8" cy="69.1" r="2.5"/>
				<circle fill="none" stroke="#4A4A49" stroke-width="2" stroke-miterlimit="10" cx="122.1" cy="68.6" r="2.5"/>
				<circle fill="none" stroke="#4A4A49" stroke-width="2" stroke-miterlimit="10" cx="122.1" cy="60.1" r="2.5"/>
				<circle fill="none" stroke="#4A4A49" stroke-width="2" stroke-miterlimit="10" cx="122.1" cy="51.6" r="2.5"/>
			</g>
		</g>
		<path fill="none" stroke="#4A4A49" stroke-width="2" stroke-miterlimit="10" d="M55.3,57.9v-6.2h-3c-0.3-1.2-0.8-2.3-1.4-3.3
			l2.1-2.1l-4.4-4.4L46.5,44c-1-0.6-2.1-1.1-3.3-1.4v-3H37v3c-1.2,0.3-2.3,0.8-3.3,1.4l-2.1-2.1l-4.4,4.4l2.1,2.1
			c-0.6,1-1.1,2.1-1.4,3.3h-3v6.2h3c0.3,1.2,0.8,2.3,1.4,3.3l-2.1,2.1l4.4,4.4l2.1-2.1c1,0.6,2.1,1.1,3.3,1.4v3h6.2v-3
			c1.2-0.3,2.3-0.8,3.3-1.4l2.1,2.1l4.4-4.4l-2.1-2.1c0.6-1,1.1-2.1,1.4-3.3H55.3z"/>
		<g>
			<g>
				<g>
					<g>
						<path fill="#4A4A49" d="M40.3,46.6c0.1,0.1,0.3,0.3,0.4,0.4c0,0,0,0,0.1,0.1c0,0-0.1,0.1-0.1,0.1c-0.2,0.1-0.3,0.2-0.5,0.3
							c-0.5,0.3-1,0.6-1.6,0.8c-0.2,0.1-0.3,0.2-0.5,0.3c-0.1,0.1-0.2,0.2-0.2,0.3c0,0.2,0,0.4,0,0.6c0,0.2,0,0.4,0,0.5
							c0,0,0,0,0,0.1c-0.2,0.2-0.3,0.3-0.5,0.5c-0.6,0.6-1.2,1.1-1.7,1.7c0,0-0.1,0-0.1,0c-0.2,0-0.4-0.1-0.6,0
							c-0.1,0-0.3,0.1-0.4,0.1c-0.2,0.1-0.3,0.3-0.3,0.5c0,0.2,0,0.5,0.1,0.7c0,0,0,0,0,0.1c0,0,0,0,0,0c-0.2,0.2-0.4,0.4-0.6,0.6
							c-0.1,0.1-0.3,0.2-0.5,0.1c-0.1,0-0.2-0.1-0.3-0.1c-0.1-0.1-0.2-0.1-0.3-0.2c-0.2-0.2-0.5-0.5-0.7-0.7
							c-0.1-0.1-0.2-0.2-0.2-0.3c-0.1-0.1-0.1-0.2-0.1-0.3c0,0,0,0,0,0c0,0,0-0.1,0-0.1c0,0,0,0,0,0c0-0.1,0.1-0.2,0.1-0.2
							c0.2-0.2,0.4-0.4,0.6-0.6c0,0,0,0,0.1,0c0.1,0,0.3,0.1,0.4,0.1c0.2,0,0.3,0,0.5,0c0.3-0.1,0.4-0.2,0.5-0.5c0-0.1,0-0.2,0-0.4
							c0-0.2,0-0.3-0.1-0.5c0,0,0,0,0-0.1c0,0,0,0,0,0c0.9-0.9,1.9-1.9,2.8-2.8c0.1-0.1,0.2-0.1,0.3-0.2c0,0,0.1,0,0.1,0
							c0.3-0.1,0.6-0.2,1-0.2c0.3-0.1,0.6-0.1,0.9-0.2c0.3,0,0.5-0.1,0.8-0.1C39.8,46.6,40.1,46.6,40.3,46.6
							C40.3,46.6,40.3,46.6,40.3,46.6C40.3,46.6,40.3,46.6,40.3,46.6z"/>
					</g>
					<g>
						<path fill="#4A4A49" d="M38,50.6C38,50.6,38,50.7,38,50.6c1.5,1.5,3.3,3.3,4.7,4.7c1.9,1.9,3.8,3.8,5.6,5.6
							c0,0,0.1,0.1,0.1,0.2c0,0.1,0.1,0.1,0.1,0.2c0.1,0.1,0.1,0.3,0,0.4c0,0.1-0.1,0.1-0.1,0.2c0,0,0,0.1-0.1,0.1
							c-0.2,0.3-0.5,0.5-0.7,0.7c-0.1,0.1-0.1,0.1-0.2,0.1c-0.2,0.1-0.3,0.1-0.5,0c-0.1-0.1-0.2-0.1-0.3-0.2
							c-0.3-0.3-0.5-0.5-0.8-0.8c-2.2-2.2-4.4-4.4-6.6-6.6c-0.9-0.9-2.1-2.1-2.9-2.9c0,0,0,0,0,0C36.9,51.8,37.4,51.2,38,50.6z"/>
					</g>
					<path fill="#4A4A49" d="M37,59.6c0,0.2,0.1,0.3,0.1,0.4c0.1,0.8,0,1.5-0.6,2.1c-0.4,0.4-0.8,0.6-1.3,0.7
						c-0.3,0.1-0.5,0.1-0.8,0.1c-1-0.1-1.8-0.7-2.1-1.7c-0.1-0.3-0.1-0.6-0.1-0.8c0-0.6,0.2-1.2,0.7-1.6c0.4-0.4,0.8-0.6,1.4-0.7
						c0.4-0.1,0.9,0,1.3,0.1c0,0,0,0,0,0c0,0,0,0,0,0c0-0.1,0.1-0.2,0.2-0.2c0.7-0.7,1.9-1.9,2.6-2.6c0,0,0,0,0,0
						c0.5,0.5,1,1,1.5,1.5c0,0,0,0,0,0c-0.6,0.6-1.9,1.9-2.5,2.5C37.3,59.4,37.2,59.5,37,59.6C37,59.6,37,59.6,37,59.6z M33.4,60.4
						c0,0.7,0.5,1.3,1.3,1.3c0.7,0,1.3-0.6,1.3-1.3c0-0.7-0.6-1.3-1.3-1.3C34,59.1,33.4,59.7,33.4,60.4z"/>
					<g>
						<path fill="#4A4A49" d="M48.5,49.4c0,0.3,0,0.5,0,0.7c0,0.3-0.1,0.5-0.2,0.8c-0.4,1-1.2,1.7-2.2,2c-0.3,0.1-0.6,0.1-1,0.1
							c-0.4,0-0.7-0.1-1.1-0.3c0,0,0,0-0.1,0c-0.3,0.3-1.2,1.2-1.6,1.6c0,0,0,0,0,0c-0.5-0.5-1-1-1.5-1.5c0.3-0.3,1.3-1.3,1.6-1.6
							c0,0,0,0,0,0c-0.2-0.4-0.3-0.7-0.3-1.1c-0.1-0.6,0.1-1.3,0.4-1.8c0.4-0.7,1-1.1,1.7-1.3c0.2-0.1,0.5-0.1,0.7-0.1
							c0.2,0,0.5,0,0.7,0c0,0,0,0,0.1,0c0,0,0,0-0.1,0.1c-0.5,0.5-1,1-1.5,1.5c0,0-0.1,0.1-0.1,0.1c-0.1,0.4-0.2,0.9-0.3,1.3
							c0,0,0,0.1,0,0.1c0.5,0.5,1,1,1.5,1.5c0,0,0.1,0,0.1,0c0.4-0.1,0.9-0.2,1.3-0.3c0,0,0.1,0,0.1-0.1
							C47.4,50.4,47.9,49.9,48.5,49.4C48.4,49.4,48.5,49.4,48.5,49.4z"/>
					</g>
				</g>
			</g>
		</g>
	</g>
</g>
</svg>
