<?xml version="1.0" encoding="utf-8"?>
<!-- Generator: Adobe Illustrator 19.0.0, SVG Export Plug-In . SVG Version: 6.00 Build 0)  -->
<svg version="1.1" id="Layer_1" xmlns="http://www.w3.org/2000/svg" xmlns:xlink="http://www.w3.org/1999/xlink" x="0px" y="0px"
	 viewBox="-19 -39.3 160 110" style="enable-background:new -19 -39.3 160 110;" xml:space="preserve">
<style type="text/css">
	.st0{fill:none;stroke:#EDEDED;stroke-width:5;stroke-miterlimit:10;}
	.st1{fill:#EDEDED;}
	.st2{fill:none;stroke:#EDEDED;stroke-width:2;stroke-miterlimit:10;}
	.st3{opacity:0.5;}
</style>
<g>
	<g>
		<g>
			<g>
				<g>
					<g>
						<path class="st0" d="M126,29V-4.5c0-13.9-11.3-25.2-25.2-25.2H23.1"/>
						<g>
							<polygon class="st1" points="136,26 126,43.3 116,26 							"/>
						</g>
					</g>
				</g>
				<g>
					<g>
						<path class="st0" d="M-4,2.4v33.5c0,13.9,11.3,25.2,25.2,25.2h77.7"/>
						<g>
							<polygon class="st1" points="-14,5.4 -4,-11.9 6,5.4 							"/>
						</g>
					</g>
				</g>
			</g>
			<g>
				<g>
					<polyline class="st2" points="95.9,-5.8 68.9,-5.8 49.3,13.7 25.7,13.7 					"/>
					<polyline class="st2" points="95.9,8.2 68.9,8.2 49.3,27.8 25.7,27.8 					"/>
					<circle class="st2" cx="100.7" cy="-5.8" r="4.4"/>
					<circle class="st2" cx="100.7" cy="8.2" r="4.4"/>
					<polyline class="st2" points="95.9,22.3 68.9,22.3 49.3,41.8 25.7,41.8 					"/>
					<circle class="st2" cx="100.7" cy="22.3" r="4.4"/>
					<circle class="st2" cx="21.3" cy="13.7" r="4.4"/>
					<circle class="st2" cx="21.3" cy="27.8" r="4.4"/>
					<circle class="st2" cx="21.3" cy="41.8" r="4.4"/>
				</g>
			</g>
		</g>
		<g class="st3">
			<g>
				<g>
					<path class="st1" d="M49,17.2L34.8,46H27l14.3-28.9L27.5-10.6h7.8L49,17.2z"/>
				</g>
			</g>
			<g>
				<g>
					<path class="st1" d="M71.8,17.2L57.6,46h-7.8l14.3-28.9L50.4-10.6h7.8L71.8,17.2z"/>
				</g>
			</g>
			<g>
				<g>
					<path class="st1" d="M94.7,17.2L80.4,46h-7.8l14.3-28.9L73.2-10.6H81L94.7,17.2z"/>
				</g>
			</g>
		</g>
	</g>
</g>
</svg>
