<?xml version="1.0" encoding="utf-8"?>
<!-- Generator: Adobe Illustrator 18.0.0, SVG Export Plug-In . SVG Version: 6.00 Build 0)  -->
<!DOCTYPE svg PUBLIC "-//W3C//DTD SVG 1.1//EN" "http://www.w3.org/Graphics/SVG/1.1/DTD/svg11.dtd">
<svg version="1.1" id="Layer_1" xmlns="http://www.w3.org/2000/svg" xmlns:xlink="http://www.w3.org/1999/xlink" x="0px" y="0px"
	 viewBox="0 0 140 110" enable-background="new 0 0 140 110" xml:space="preserve">
<g>
	<g>
		<g>
			<rect x="30.5" y="27.6" fill="none" stroke="#4A4A49" stroke-width="2" stroke-miterlimit="10" width="78.9" height="78.9"/>
			<g>
				<line fill="none" stroke="#4A4A49" stroke-width="2" stroke-miterlimit="10" x1="4.9" y1="44.3" x2="19.8" y2="44.3"/>
				<line fill="none" stroke="#4A4A49" stroke-width="2" stroke-miterlimit="10" x1="4.9" y1="94.8" x2="19.8" y2="94.8"/>
				<line fill="none" stroke="#4A4A49" stroke-width="2" stroke-miterlimit="10" x1="4.9" y1="69.6" x2="19.8" y2="69.6"/>
			</g>
			<g>
				<line fill="none" stroke="#4A4A49" stroke-width="2" stroke-miterlimit="10" x1="120.1" y1="44.3" x2="134.9" y2="44.3"/>
				<line fill="none" stroke="#4A4A49" stroke-width="2" stroke-miterlimit="10" x1="120.1" y1="94.8" x2="134.9" y2="94.8"/>
				<line fill="none" stroke="#4A4A49" stroke-width="2" stroke-miterlimit="10" x1="120.1" y1="69.6" x2="134.9" y2="69.6"/>
			</g>
		</g>
		<g>
			<polyline fill="none" stroke="#4A4A49" stroke-width="2" stroke-miterlimit="10" points="93.3,48.6 74.9,48.6 61.6,61.9 
				44.7,61.9 			"/>
			<polyline fill="none" stroke="#4A4A49" stroke-width="2" stroke-miterlimit="10" points="93.3,61.6 74.9,61.6 61.6,74.9 
				44.7,74.9 			"/>
			<circle fill="none" stroke="#4A4A49" stroke-width="2" stroke-miterlimit="10" cx="96.5" cy="48.6" r="3"/>
			<circle fill="none" stroke="#4A4A49" stroke-width="2" stroke-miterlimit="10" cx="96.5" cy="61.6" r="3"/>
			<polyline fill="none" stroke="#4A4A49" stroke-width="2" stroke-miterlimit="10" points="93.3,74.6 74.9,74.6 61.6,87.9 
				44.7,87.9 			"/>
			<circle fill="none" stroke="#4A4A49" stroke-width="2" stroke-miterlimit="10" cx="96.5" cy="74.6" r="3"/>
			<circle fill="none" stroke="#4A4A49" stroke-width="2" stroke-miterlimit="10" cx="42.5" cy="61.9" r="3"/>
			<circle fill="none" stroke="#4A4A49" stroke-width="2" stroke-miterlimit="10" cx="42.5" cy="74.9" r="3"/>
			<circle fill="none" stroke="#4A4A49" stroke-width="2" stroke-miterlimit="10" cx="42.5" cy="87.9" r="3"/>
		</g>
		<g>
			
				<rect x="69" y="0.4" transform="matrix(0.8192 0.5736 -0.5736 0.8192 31.7503 -36.6163)" fill="#4A4A49" width="9.8" height="63.3"/>
			<polygon fill="#4A4A49" points="43.8,75.3 50,57.7 58.1,63.4 			"/>
		</g>
	</g>
</g>
</svg>
