<?xml version="1.0" encoding="utf-8"?>
<!-- Generator: Adobe Illustrator 19.0.0, SVG Export Plug-In . SVG Version: 6.00 Build 0)  -->
<svg version="1.1" id="Layer_1" xmlns="http://www.w3.org/2000/svg" xmlns:xlink="http://www.w3.org/1999/xlink" x="0px" y="0px"
	 viewBox="0 0 226.8 42.5" style="enable-background:new 0 0 226.8 42.5;" xml:space="preserve">
<style type="text/css">
	.st0{fill:#898989;}
</style>
<g id="XMLID_131_">
	<g id="XMLID_113_">
		<g id="XMLID_423_">
			<path id="XMLID_455_" class="st0" d="M101.5,27c-0.6,0-1.1,0.1-1.6,0.1c-0.8,0-1.9,0.1-3.2,0.1c-1.4,0-2.1,0-2.2,0v-1.7h1.7
				l-0.2-5.9h1.7l0.2,5.9c0.4,0,0.7,0,1,0c0.2,0,0.5,0,0.8,0l0.2-5.8h1.6l-0.2,5.7c0.3,0,0.6,0,1-0.1c0.4,0,0.7-0.1,1-0.1v1.7
				C102.6,26.9,102.1,27,101.5,27z M94.8,18.9v-1.8h7.7v1.8H94.8z M104,30.4V15.6h1.6v14.8H104z"/>
			<path id="XMLID_450_" class="st0" d="M114.9,18.8v-3h1.6v10.3h-1.6v-5.5h-1.3c-0.1,0.9-0.5,1.6-1,2.1c-0.6,0.5-1.2,0.8-2,0.8
				c-0.8,0-1.6-0.3-2.2-1c-0.6-0.7-0.9-1.6-0.9-2.7c0-1.1,0.3-2,0.9-2.7c0.6-0.7,1.3-1,2.2-1c0.7,0,1.3,0.2,1.9,0.7
				c0.5,0.5,0.9,1.1,1.1,1.9H114.9z M109.7,18.5c-0.3,0.3-0.4,0.8-0.4,1.4c0,0.6,0.1,1.1,0.4,1.4c0.3,0.3,0.6,0.5,0.9,0.5
				c0.4,0,0.7-0.2,0.9-0.5c0.3-0.3,0.4-0.8,0.4-1.4c0-0.6-0.1-1.1-0.4-1.4c-0.3-0.3-0.6-0.5-0.9-0.5C110.3,18,110,18.2,109.7,18.5z
				 M109.9,30.1v-4.7h1.7v3h7.9v1.7H109.9z M117.6,26.5V15.6h1.6v10.9H117.6z"/>
			<path id="XMLID_446_" class="st0" d="M126.9,26.2c-0.6,1-1.5,1.5-2.6,1.5c-1.1,0-1.9-0.5-2.6-1.5c-0.6-1-1-2.3-1-4
				c0-1.7,0.3-3,1-4c0.6-1,1.5-1.5,2.6-1.5c1.1,0,1.9,0.5,2.6,1.5c0.6,1,0.9,2.4,0.9,4C127.9,23.9,127.5,25.2,126.9,26.2z
				 M125.7,19.5c-0.3-0.8-0.8-1.2-1.4-1.2c-0.6,0-1.1,0.4-1.4,1.2c-0.3,0.8-0.5,1.7-0.5,2.6c0,1,0.2,1.9,0.5,2.6
				c0.3,0.8,0.8,1.2,1.4,1.2c0.6,0,1-0.4,1.4-1.1c0.3-0.8,0.5-1.6,0.5-2.7C126.2,21.2,126.1,20.3,125.7,19.5z M131.4,23.3v7.1h-1.7
				V15.6h1.7v5.9h1.8v1.9H131.4z"/>
			<path id="XMLID_442_" class="st0" d="M140.4,18.2c0.6,1,0.9,2.4,0.9,4c0,1.7-0.3,3-0.9,4c-0.6,1-1.5,1.5-2.6,1.5
				c-1.1,0-1.9-0.5-2.6-1.5c-0.6-1-1-2.3-1-4c0-1.7,0.3-3,1-4c0.6-1,1.5-1.5,2.6-1.5C138.9,16.7,139.7,17.2,140.4,18.2z M139.2,19.5
				c-0.3-0.8-0.8-1.2-1.4-1.2c-0.6,0-1,0.4-1.4,1.2c-0.3,0.8-0.5,1.7-0.5,2.6c0,1,0.2,1.9,0.5,2.6c0.3,0.8,0.8,1.2,1.4,1.2
				c0.6,0,1-0.4,1.4-1.1c0.3-0.8,0.5-1.6,0.5-2.7C139.7,21.2,139.5,20.3,139.2,19.5z M143.5,30.4V15.6h1.6v14.8H143.5z"/>
			<path id="XMLID_438_" class="st0" d="M151.6,23.3v-1.6h5.4v-1.5h1.8v1.5h5.4v1.6H151.6z M157.1,19c-0.4,0.3-0.8,0.6-1.2,0.8
				c-0.5,0.2-1,0.4-1.4,0.6c-0.5,0.2-0.8,0.3-1.1,0.3l-1-1.4c0.3-0.1,0.8-0.2,1.4-0.4c0.6-0.2,1.1-0.5,1.7-0.8
				c0.5-0.3,0.9-0.6,1.1-1c0.3-0.4,0.4-0.7,0.4-1.1v-0.5h2v0.5c0,0.4,0.1,0.8,0.4,1.1c0.2,0.4,0.6,0.7,1.1,1
				c0.6,0.3,1.1,0.6,1.7,0.8c0.6,0.2,1,0.3,1.3,0.4l-1,1.4c-0.3-0.1-0.7-0.2-1.1-0.3c-0.4-0.2-0.9-0.4-1.4-0.6
				c-0.5-0.2-0.9-0.5-1.2-0.8c-0.4-0.3-0.6-0.6-0.7-0.8C157.8,18.5,157.5,18.7,157.1,19z M153.2,30.2v-3.8h7.6v-0.8h-7.6v-1.5h9.4
				v3.8H155v0.8h7.9v1.5H153.2z"/>
			<path id="XMLID_435_" class="st0" d="M171.8,26v4.4h-1.7V26h-5.4v-1.7h12.5V26H171.8z M166.4,23.3v-4.5h7.5v-1.1h-7.5V16h9.2v4.5
				h-7.5v1.1h7.8v1.7H166.4z"/>
			<path id="XMLID_431_" class="st0" d="M185.3,24.2c-0.2-0.1-0.6-0.3-0.9-0.5c-0.4-0.3-0.8-0.6-1.1-0.9c-0.2-0.2-0.5-0.5-0.6-0.7
				c-0.2-0.2-0.4-0.5-0.6-0.8c-0.1,0.3-0.3,0.6-0.5,0.9c-0.2,0.3-0.5,0.6-0.8,1c-0.3,0.4-0.7,0.7-1,0.9s-0.6,0.5-0.9,0.6l-1.2-1.4
				c0.4-0.2,0.8-0.6,1.3-0.9c0.4-0.4,0.8-0.8,1.2-1.3c0.4-0.6,0.7-1.1,0.8-1.7c0.1-0.6,0.2-1.2,0.2-1.8V16h1.8v1.6
				c0,0.6,0.1,1.2,0.2,1.7c0.2,0.6,0.4,1.1,0.8,1.5c0.4,0.5,0.8,0.8,1.2,1.2c0.4,0.3,0.8,0.6,1.2,0.7L185.3,24.2z M180.2,30.1v-4.6
				h1.7v2.9h7.8v1.7H180.2z M187.8,26.3v-4.4h-2.2v-1.7h2.2v-1.3h-2.2v-1.7h2.2v-1.5h1.6v10.7H187.8z"/>
			<path id="XMLID_429_" class="st0" d="M197.2,30.5c-0.4-0.7-0.8-1.6-1.3-2.7c-0.5-1.1-0.7-2.4-0.7-3.9c0-1.5,0.2-2.8,0.7-3.9
				c0.5-1.1,0.9-2,1.3-2.7h1c-0.6,1.2-1,2.4-1.3,3.5c-0.2,1.1-0.4,2.1-0.4,3.1c0,1,0.1,2,0.4,3.1c0.2,1.1,0.7,2.2,1.3,3.5H197.2z"/>
			<path id="XMLID_426_" class="st0" d="M204.6,25.9v4h-1.4v-4h-4.4v-1.4H209v1.4H204.6z M205.2,20.6c0.2,0.3,0.5,0.5,0.8,0.8
				c0.4,0.3,0.8,0.5,1.3,0.7c0.5,0.2,0.9,0.3,1.1,0.4l-0.8,1.1c-0.3-0.1-0.6-0.2-1-0.4c-0.4-0.2-0.8-0.4-1.2-0.7
				c-0.3-0.2-0.6-0.5-0.9-0.7c-0.2-0.2-0.4-0.5-0.6-0.7c-0.1,0.2-0.3,0.5-0.6,0.7c-0.3,0.2-0.5,0.5-0.9,0.7
				c-0.4,0.3-0.8,0.5-1.2,0.7c-0.4,0.2-0.7,0.3-1,0.4l-0.8-1.1c0.3-0.1,0.7-0.2,1.1-0.4c0.5-0.2,0.9-0.4,1.3-0.7
				c0.3-0.2,0.6-0.5,0.8-0.8c0.2-0.3,0.4-0.6,0.5-0.9H200v-1.4h7.9v1.4h-3.1C204.9,20.1,205,20.4,205.2,20.6z"/>
			<path id="XMLID_424_" class="st0" d="M211.9,20.1c0.5,1.1,0.7,2.4,0.7,3.9c0,1.5-0.2,2.8-0.7,3.9c-0.5,1.1-0.9,2-1.3,2.7h-1
				c0.6-1.2,1-2.4,1.3-3.5c0.3-1.1,0.4-2.1,0.4-3.1c0-1-0.1-2.1-0.4-3.1c-0.3-1.1-0.7-2.2-1.3-3.5h1C211,18.1,211.4,19,211.9,20.1z"
				/>
		</g>
	</g>
	<g id="XMLID_20_">
		<g id="XMLID_459_">
			<g id="XMLID_489_">
				<g id="XMLID_493_">
					<path id="XMLID_494_" class="st0" d="M18.4,20.2c0-7.8,6.7-14.2,15-14.2c2,0,4,0.4,5.8,1.1c-2.4-1.4-5.3-2.2-8.3-2.2
						c-9.2,0-16.7,7.5-16.7,16.7c0,4.6,1.9,8.8,4.9,11.8l3.3-3.7C19.9,27.2,18.4,23.9,18.4,20.2z"/>
				</g>
				<g id="XMLID_491_">
					<path id="XMLID_492_" class="st0" d="M42.5,22.9c-0.3,7.8-7.3,13.9-15.6,13.5c-2-0.1-4-0.6-5.7-1.3c2.4,1.5,5.2,2.4,8.2,2.6
						c9.2,0.4,17-6.7,17.4-16c0.2-4.6-1.5-8.8-4.4-12L39,13.2C41.3,15.8,42.7,19.2,42.5,22.9z"/>
				</g>
				<polygon id="XMLID_490_" class="st0" points="35.5,9.8 37.5,14.9 34,18.7 35.8,19 30.5,25.4 32.8,25.4 24.9,33.2 28.1,26.9 
					25.7,26.9 30.7,20 26.9,20 				"/>
			</g>
			<path id="XMLID_486_" class="st0" d="M51,22.4V11.6H55c1.3,0,2.2,0.4,2.6,1.2c0.4,0.8,0.6,1.5,0.6,2.2c0,0.7-0.2,1.4-0.6,2.2
				c-0.4,0.8-1.2,1.2-2.6,1.1h-2.5v4.1H51z M52.6,13.1v3.6h2.4c0.4,0,0.7-0.1,1.1-0.4c0.4-0.3,0.5-0.7,0.5-1.4
				c0-0.7-0.2-1.2-0.5-1.4c-0.3-0.2-0.7-0.4-1.1-0.4H52.6z"/>
			<path id="XMLID_482_" class="st0" d="M63.8,22.2l-0.6-0.8c-0.2,0.3-0.5,0.6-0.8,0.7c-0.3,0.1-0.7,0.2-1.1,0.2
				c-0.6,0-1.1-0.2-1.5-0.6c-0.4-0.4-0.6-0.9-0.6-1.5c0-0.5,0.2-0.9,0.5-1.2c0.3-0.3,0.7-0.6,1.1-0.8c-0.2-0.2-0.3-0.5-0.5-0.7
				C60.1,17.3,60,17,60,16.7c0-0.5,0.2-0.9,0.5-1.2c0.3-0.3,0.7-0.5,1.2-0.5c0.4,0,0.8,0.1,1.2,0.4c0.3,0.3,0.5,0.7,0.5,1.3
				c0,0.4-0.1,0.8-0.4,1.1c-0.2,0.3-0.5,0.5-0.9,0.7l1.1,1.3c0-0.1,0.1-0.2,0.1-0.4c0-0.1,0.1-0.3,0.1-0.6h0.9
				c0,0.3-0.1,0.6-0.2,0.9c-0.1,0.3-0.2,0.6-0.4,0.8l1.3,1.6H63.8z M61.3,21.5c0.4,0,0.7-0.1,0.9-0.3c0.2-0.2,0.3-0.4,0.4-0.5
				L61.3,19c-0.2,0.1-0.4,0.3-0.7,0.4c-0.2,0.2-0.4,0.5-0.4,0.9c0,0.4,0.1,0.7,0.3,0.9C60.8,21.4,61,21.5,61.3,21.5z M62.4,16.7
				c0-0.2-0.1-0.4-0.2-0.6c-0.1-0.2-0.3-0.2-0.5-0.2c-0.2,0-0.4,0.1-0.5,0.2c-0.1,0.1-0.2,0.3-0.2,0.6c0,0.2,0.1,0.4,0.2,0.6
				c0.1,0.2,0.3,0.4,0.4,0.5c0.2-0.1,0.4-0.3,0.5-0.5C62.3,17.2,62.4,17,62.4,16.7z"/>
			<path id="XMLID_480_" class="st0" d="M67.9,22.4V11.6h1.6v10.8H67.9z"/>
			<g id="XMLID_460_">
				<path id="XMLID_478_" class="st0" d="M53.3,31.1c-0.8,0-1.4-0.2-1.9-0.6c-0.5-0.4-0.8-1.1-0.8-1.9h1.2c0,0.5,0.2,0.9,0.5,1.2
					c0.3,0.2,0.7,0.4,1.2,0.4c0.5,0,0.9-0.1,1.1-0.3c0.2-0.2,0.3-0.5,0.3-0.7c0-0.3-0.1-0.5-0.2-0.6c-0.1-0.1-0.2-0.2-0.4-0.3
					c-0.2-0.1-0.5-0.2-0.8-0.3c-0.3-0.1-0.7-0.2-1.1-0.3c-0.6-0.2-0.9-0.4-1.2-0.8c-0.2-0.3-0.3-0.7-0.3-1.1c0-0.7,0.3-1.2,0.8-1.6
					c0.5-0.3,1.1-0.5,1.6-0.5c0.7,0,1.3,0.2,1.8,0.6c0.5,0.4,0.8,1,0.8,1.7h-1.2c0-0.5-0.2-0.8-0.4-1c-0.3-0.2-0.6-0.3-1-0.3
					c-0.3,0-0.5,0.1-0.8,0.2c-0.3,0.1-0.4,0.4-0.4,0.7c0,0.2,0.1,0.4,0.2,0.6c0.1,0.1,0.3,0.3,0.6,0.3c0.1,0,0.3,0.1,0.9,0.2
					c0.5,0.1,0.9,0.3,1,0.3c0.4,0.1,0.8,0.4,1,0.7c0.2,0.4,0.3,0.7,0.3,1.1c0,0.8-0.3,1.4-0.8,1.7C54.6,30.9,54,31.1,53.3,31.1z"/>
				<path id="XMLID_475_" class="st0" d="M61.3,28.3c0,0.8-0.2,1.5-0.6,2c-0.4,0.5-1,0.8-1.8,0.8c-0.8,0-1.4-0.3-1.8-0.8
					c-0.4-0.5-0.6-1.2-0.6-2c0-0.8,0.2-1.5,0.6-2c0.4-0.5,1-0.8,1.8-0.8c0.8,0,1.4,0.3,1.8,0.8C61.1,26.8,61.3,27.5,61.3,28.3z
					 M57.5,28.3c0,0.4,0.1,0.9,0.3,1.3c0.2,0.4,0.6,0.6,1,0.6c0.5,0,0.8-0.2,1-0.6c0.2-0.4,0.3-0.8,0.3-1.3c0-0.4-0.1-0.9-0.3-1.2
					c-0.2-0.4-0.6-0.6-1-0.6c-0.5,0-0.8,0.2-1,0.6C57.6,27.4,57.5,27.8,57.5,28.3z"/>
				<path id="XMLID_473_" class="st0" d="M62.2,30.9v-7.2h1.1v7.2H62.2z"/>
				<path id="XMLID_471_" class="st0" d="M68.6,25.7v5.2h-1v-0.7h0c-0.1,0.3-0.3,0.5-0.6,0.6C66.7,31,66.4,31,66.2,31
					c-0.6,0-1.1-0.2-1.4-0.5c-0.3-0.3-0.4-0.9-0.4-1.5v-3.3h1.1v3.2c0,0.5,0.1,0.8,0.2,1c0.2,0.2,0.4,0.3,0.7,0.3
					c0.4,0,0.7-0.1,0.9-0.4c0.2-0.3,0.3-0.6,0.3-1v-3H68.6z"/>
				<path id="XMLID_469_" class="st0" d="M69.2,26.6v-0.9H70v-1.6h1v1.6h1v0.9h-1v2.8c0,0.2,0,0.4,0.1,0.5c0.1,0.1,0.2,0.2,0.4,0.2
					c0.1,0,0.1,0,0.2,0c0.1,0,0.1,0,0.2,0v0.9c-0.1,0-0.2,0-0.3,0c-0.1,0-0.2,0-0.3,0c-0.5,0-0.9-0.1-1.1-0.3
					c-0.2-0.2-0.2-0.6-0.3-1v-3.1H69.2z"/>
				<path id="XMLID_466_" class="st0" d="M72.8,24.8v-1.1h1.1v1.1H72.8z M72.8,30.9v-5.2h1.1v5.2H72.8z"/>
				<path id="XMLID_463_" class="st0" d="M79.6,28.3c0,0.8-0.2,1.5-0.6,2c-0.4,0.5-1,0.8-1.8,0.8c-0.8,0-1.3-0.3-1.8-0.8
					c-0.4-0.5-0.6-1.2-0.6-2c0-0.8,0.2-1.5,0.6-2c0.4-0.5,1-0.8,1.8-0.8c0.8,0,1.4,0.3,1.8,0.8C79.4,26.8,79.6,27.5,79.6,28.3z
					 M75.8,28.3c0,0.4,0.1,0.9,0.3,1.3c0.2,0.4,0.6,0.6,1,0.6c0.5,0,0.8-0.2,1-0.6c0.2-0.4,0.3-0.8,0.3-1.3c0-0.4-0.1-0.9-0.3-1.2
					c-0.2-0.4-0.6-0.6-1-0.6c-0.5,0-0.8,0.2-1,0.6C75.9,27.4,75.8,27.8,75.8,28.3z"/>
				<path id="XMLID_461_" class="st0" d="M80.4,30.9v-5.2h1v0.8l0,0c0.2-0.3,0.4-0.5,0.6-0.7c0.3-0.2,0.5-0.2,0.9-0.2
					c0.5,0,0.9,0.1,1.2,0.4c0.3,0.3,0.5,0.7,0.5,1.3v3.6h-1.1v-3.3c0-0.4-0.1-0.7-0.2-0.9c-0.2-0.2-0.4-0.3-0.7-0.3
					c-0.3,0-0.6,0.1-0.8,0.4c-0.2,0.3-0.3,0.6-0.3,1v3.1H80.4z"/>
			</g>
		</g>
	</g>
</g>
</svg>
