<?xml version="1.0" encoding="utf-8"?>
<!-- Generator: Adobe Illustrator 18.0.0, SVG Export Plug-In . SVG Version: 6.00 Build 0)  -->
<!DOCTYPE svg PUBLIC "-//W3C//DTD SVG 1.1//EN" "http://www.w3.org/Graphics/SVG/1.1/DTD/svg11.dtd">
<svg version="1.1" id="Layer_1" xmlns="http://www.w3.org/2000/svg" xmlns:xlink="http://www.w3.org/1999/xlink" x="0px" y="0px"
	 viewBox="0 0 320 70" enable-background="new 0 0 320 70" xml:space="preserve">
<g>
	<path fill="#005BAB" d="M145.6,42c-0.7,0-1.4,0.1-2,0.1c-1,0.1-2.3,0.1-3.9,0.1c-1.6,0-2.5,0-2.7,0V40h2l-0.2-7.1h2L141,40
		c0.5,0,0.9,0,1.2,0c0.3,0,0.6,0,1,0l0.2-7h2l-0.2,6.9c0.3,0,0.7-0.1,1.2-0.1c0.5,0,0.9-0.1,1.2-0.1v2.1
		C147,41.9,146.3,41.9,145.6,42z M137.5,32.2v-2.1h9.3v2.1H137.5z M148.6,46.1V28.2h2v17.9H148.6z"/>
	<path fill="#005BAB" d="M161.9,32.1v-3.6h1.9V41h-1.9v-6.7h-1.6c-0.2,1.1-0.6,1.9-1.2,2.6c-0.7,0.7-1.5,1-2.4,1
		c-1,0-1.9-0.4-2.6-1.3c-0.7-0.8-1.1-1.9-1.1-3.2c0-1.3,0.4-2.4,1.1-3.2c0.7-0.8,1.6-1.3,2.6-1.3c0.9,0,1.6,0.3,2.2,0.9
		c0.6,0.6,1.1,1.3,1.3,2.3H161.9z M155.5,31.7c-0.3,0.4-0.5,1-0.5,1.7c0,0.7,0.2,1.3,0.5,1.7c0.3,0.4,0.7,0.6,1.1,0.6
		c0.4,0,0.8-0.2,1.1-0.6c0.3-0.4,0.5-1,0.5-1.7c0-0.8-0.2-1.3-0.5-1.7c-0.3-0.4-0.7-0.6-1.1-0.6C156.2,31.1,155.9,31.3,155.5,31.7z
		 M155.8,45.7V40h2v3.6h9.5v2.1H155.8z M165.1,41.3V28.2h1.9v13.1H165.1z"/>
	<path fill="#005BAB" d="M176.4,41c-0.8,1.2-1.8,1.8-3.1,1.8c-1.3,0-2.3-0.6-3.1-1.8c-0.8-1.2-1.2-2.8-1.2-4.8c0-2,0.4-3.7,1.2-4.9
		c0.8-1.2,1.8-1.8,3.1-1.8c1.3,0,2.3,0.6,3.1,1.8c0.8,1.2,1.1,2.9,1.1,4.9C177.5,38.1,177.1,39.8,176.4,41z M174.9,32.9
		c-0.4-0.9-0.9-1.4-1.6-1.4c-0.7,0-1.3,0.5-1.7,1.4c-0.4,0.9-0.6,2-0.6,3.2c0,1.2,0.2,2.3,0.6,3.2c0.4,0.9,1,1.4,1.7,1.4
		c0.7,0,1.3-0.5,1.6-1.4c0.4-0.9,0.6-2,0.6-3.2C175.5,34.9,175.3,33.8,174.9,32.9z M181.8,37.5v8.6h-2V28.2h2v7.1h2.2v2.3H181.8z"/>
	<path fill="#005BAB" d="M192.6,31.3c0.8,1.2,1.1,2.9,1.1,4.9c0,2-0.4,3.6-1.1,4.8c-0.8,1.2-1.8,1.8-3.1,1.8c-1.3,0-2.3-0.6-3.1-1.8
		c-0.8-1.2-1.2-2.8-1.2-4.8c0-2,0.4-3.7,1.2-4.9c0.8-1.2,1.8-1.8,3.1-1.8C190.8,29.4,191.9,30,192.6,31.3z M191.2,32.9
		c-0.4-0.9-0.9-1.4-1.7-1.4c-0.7,0-1.3,0.5-1.7,1.4c-0.4,0.9-0.6,2-0.6,3.2c0,1.2,0.2,2.3,0.6,3.2c0.4,0.9,1,1.4,1.7,1.4
		c0.7,0,1.3-0.5,1.7-1.4c0.4-0.9,0.6-2,0.6-3.2C191.8,34.9,191.6,33.8,191.2,32.9z M196.4,46.1V28.2h2v17.9H196.4z"/>
	<path fill="#005BAB" d="M206.3,37.4v-1.9h6.5v-1.9h2.2v1.9h6.5v1.9H206.3z M212.9,32.3c-0.4,0.4-0.9,0.7-1.5,1
		c-0.6,0.3-1.2,0.5-1.7,0.7c-0.5,0.2-1,0.3-1.4,0.4l-1.2-1.6c0.4-0.1,0.9-0.2,1.6-0.5c0.7-0.3,1.4-0.6,2.1-1
		c0.6-0.4,1.1-0.8,1.4-1.2c0.3-0.4,0.5-0.9,0.5-1.4v-0.6h2.4v0.6c0,0.5,0.1,0.9,0.4,1.4c0.3,0.4,0.7,0.8,1.3,1.2
		c0.7,0.4,1.4,0.7,2.1,1c0.7,0.3,1.2,0.4,1.6,0.5l-1.2,1.6c-0.4-0.1-0.8-0.2-1.4-0.4c-0.5-0.2-1.1-0.4-1.7-0.7
		c-0.6-0.3-1.1-0.6-1.5-1c-0.4-0.4-0.7-0.7-0.9-1C213.7,31.6,213.4,32,212.9,32.3z M208.2,45.9v-4.5h9.2v-1h-9.2v-1.9h11.4V43h-9.2
		v1h9.5v1.9H208.2z"/>
	<path fill="#005BAB" d="M230.6,40.8v5.3h-2v-5.3h-6.5v-2.1h15.2v2.1H230.6z M224.1,37.5v-5.5h9.1v-1.3h-9.1v-2.1h11.2v5.4h-9.1v1.4
		h9.4v2.1H224.1z"/>
	<path fill="#005BAB" d="M247,38.6c-0.3-0.1-0.7-0.3-1.1-0.7c-0.5-0.3-0.9-0.7-1.3-1.1c-0.3-0.3-0.5-0.6-0.8-0.9
		c-0.2-0.3-0.5-0.6-0.7-1c-0.2,0.4-0.4,0.7-0.6,1.1c-0.3,0.4-0.6,0.8-0.9,1.2c-0.4,0.4-0.8,0.8-1.2,1.1c-0.4,0.3-0.8,0.6-1.1,0.8
		l-1.4-1.7c0.5-0.3,1-0.7,1.6-1.1c0.5-0.4,1-1,1.4-1.6c0.5-0.7,0.8-1.4,1-2.1c0.2-0.7,0.2-1.4,0.2-2.2v-1.9h2.1v1.9
		c0,0.7,0.1,1.4,0.3,2.1c0.2,0.7,0.5,1.3,0.9,1.9c0.4,0.6,0.9,1,1.4,1.4c0.5,0.4,1,0.7,1.4,0.9L247,38.6z M240.9,45.7v-5.6h2v3.5
		h9.4v2.1H240.9z M250,41.1v-5.3h-2.7v-2.1h2.7v-1.6h-2.7V30h2.7v-1.9h2v12.9H250z"/>
	<path fill="#005BAB" d="M261.4,46.2c-0.5-0.9-1-2-1.6-3.3c-0.6-1.3-0.8-2.9-0.8-4.7c0-1.8,0.3-3.3,0.8-4.7c0.6-1.3,1.1-2.4,1.6-3.3
		h1.2c-0.7,1.5-1.3,2.9-1.5,4.2c-0.3,1.3-0.4,2.6-0.4,3.8c0,1.2,0.1,2.5,0.4,3.8c0.3,1.3,0.8,2.7,1.5,4.2H261.4z"/>
	<path fill="#005BAB" d="M270.3,40.6v4.9h-1.7v-4.9h-5.3V39h12.3v1.6H270.3z M271.1,34.2c0.3,0.3,0.6,0.6,1,0.9
		c0.5,0.3,1,0.6,1.6,0.9c0.6,0.2,1,0.4,1.4,0.5l-1,1.4c-0.3-0.1-0.7-0.2-1.2-0.4c-0.5-0.2-1-0.5-1.5-0.8c-0.4-0.3-0.8-0.6-1.1-0.9
		c-0.3-0.3-0.5-0.6-0.7-0.8c-0.2,0.3-0.4,0.6-0.7,0.8c-0.3,0.3-0.7,0.6-1.1,0.9c-0.5,0.3-1,0.6-1.5,0.8c-0.5,0.2-0.9,0.3-1.2,0.4
		l-1-1.4c0.3-0.1,0.8-0.3,1.4-0.5c0.6-0.2,1.1-0.5,1.6-0.9c0.4-0.3,0.7-0.6,1-0.9c0.3-0.3,0.5-0.7,0.6-1.1h-3.8v-1.6h9.5v1.6h-3.7
		C270.6,33.6,270.8,33.9,271.1,34.2z"/>
	<path fill="#005BAB" d="M279.2,33.6c0.6,1.3,0.8,2.9,0.8,4.7c0,1.8-0.3,3.3-0.8,4.7c-0.6,1.3-1.1,2.4-1.6,3.3h-1.2
		c0.7-1.5,1.2-2.9,1.5-4.2c0.3-1.3,0.5-2.6,0.5-3.8c0-1.2-0.2-2.5-0.5-3.8c-0.3-1.3-0.8-2.7-1.5-4.2h1.2
		C278.1,31.1,278.6,32.2,279.2,33.6z"/>
</g>
<g>
	<g>
		<g>
			<linearGradient id="SVGID_1_" gradientUnits="userSpaceOnUse" x1="49.5182" y1="31.2079" x2="56.9164" y2="20.8787">
				<stop  offset="0" style="stop-color:#00B1E1"/>
				<stop  offset="2.537304e-002" style="stop-color:#00ADDF"/>
				<stop  offset="0.3243" style="stop-color:#0085C4"/>
				<stop  offset="0.5966" style="stop-color:#0067B2"/>
				<stop  offset="0.8308" style="stop-color:#0055A6"/>
				<stop  offset="1" style="stop-color:#004FA2"/>
			</linearGradient>
			<path fill="url(#SVGID_1_)" d="M45.1,33.7c0-9.5,8.1-17.1,18.2-17.1c2.5,0,4.8,0.5,7,1.3c-3-1.7-6.4-2.7-10-2.7
				C49,15.2,40,24.2,40,35.4c0,5.6,2.3,10.6,5.9,14.3l4-4.4C46.9,42.2,45.1,38.1,45.1,33.7z"/>
		</g>
		<g>
			<linearGradient id="SVGID_2_" gradientUnits="userSpaceOnUse" x1="68.3791" y1="31.6489" x2="65.5873" y2="40.0242">
				<stop  offset="0" style="stop-color:#00B1E1"/>
				<stop  offset="0.4209" style="stop-color:#0081C2"/>
				<stop  offset="0.7993" style="stop-color:#005DAB"/>
				<stop  offset="1" style="stop-color:#004FA2"/>
			</linearGradient>
			<path fill="url(#SVGID_2_)" d="M74.3,37c-0.4,9.5-8.9,16.8-18.9,16.3c-2.5-0.1-4.8-0.7-6.9-1.6c2.9,1.8,6.3,2.9,9.9,3.1
				c11.1,0.5,20.6-8.2,21.1-19.3c0.2-5.6-1.8-10.7-5.3-14.5l-4.1,4.2C72.9,28.4,74.5,32.5,74.3,37z"/>
		</g>
		<linearGradient id="SVGID_3_" gradientUnits="userSpaceOnUse" x1="58.1528" y1="38.1072" x2="63.3797" y2="29.3256">
			<stop  offset="0" style="stop-color:#FDD100"/>
			<stop  offset="8.502525e-002" style="stop-color:#FAC300"/>
			<stop  offset="0.3656" style="stop-color:#F39B01"/>
			<stop  offset="0.6212" style="stop-color:#ED7D01"/>
			<stop  offset="0.8412" style="stop-color:#EA6B01"/>
			<stop  offset="1" style="stop-color:#E96501"/>
		</linearGradient>
		<polygon fill="url(#SVGID_3_)" points="65.8,21.2 68.2,27.3 63.9,31.9 66.2,32.2 59.7,40 62.5,40 53,49.4 56.8,41.8 53.9,41.8 
			60,33.5 55.4,33.5 		"/>
	</g>
	<path fill="#005BAB" d="M84.5,36.3v-13h4.9c1.6,0,2.6,0.5,3.1,1.4c0.5,0.9,0.7,1.8,0.7,2.6c0,0.8-0.2,1.7-0.7,2.6
		c-0.5,0.9-1.5,1.4-3.1,1.4h-3v5H84.5z M86.5,25.2v4.3h2.8c0.4,0,0.9-0.2,1.3-0.5c0.4-0.3,0.6-0.9,0.6-1.7c0-0.9-0.2-1.4-0.6-1.7
		s-0.8-0.4-1.4-0.4H86.5z"/>
	<path fill="#005BAB" d="M100,36.2l-0.7-1c-0.3,0.4-0.6,0.7-1,0.9c-0.4,0.2-0.8,0.3-1.3,0.3c-0.7,0-1.4-0.2-1.9-0.7
		c-0.5-0.4-0.7-1.1-0.7-1.9c0-0.6,0.2-1.1,0.6-1.5c0.4-0.4,0.8-0.7,1.3-1c-0.2-0.3-0.4-0.6-0.6-0.9c-0.2-0.3-0.3-0.6-0.3-1
		c0-0.6,0.2-1.1,0.6-1.5c0.4-0.4,0.9-0.6,1.4-0.6c0.5,0,1,0.2,1.4,0.5c0.4,0.3,0.6,0.8,0.6,1.5c0,0.5-0.1,0.9-0.4,1.3
		c-0.3,0.4-0.6,0.6-1,0.9l1.3,1.6c0-0.1,0.1-0.3,0.1-0.5c0-0.2,0.1-0.4,0.1-0.7h1.1c0,0.4-0.1,0.7-0.2,1.1c-0.1,0.4-0.2,0.7-0.4,1
		l1.6,2H100z M97,35.3c0.5,0,0.8-0.1,1-0.3c0.2-0.2,0.4-0.4,0.5-0.6L97,32.2c-0.2,0.2-0.5,0.3-0.8,0.5c-0.3,0.2-0.5,0.6-0.5,1.1
		c0,0.5,0.1,0.8,0.4,1.1C96.4,35.2,96.7,35.3,97,35.3z M98.3,29.5c0-0.3-0.1-0.5-0.2-0.7c-0.2-0.2-0.4-0.3-0.6-0.3
		c-0.2,0-0.4,0.1-0.6,0.3c-0.2,0.2-0.3,0.4-0.3,0.7c0,0.3,0.1,0.5,0.3,0.8c0.2,0.2,0.3,0.4,0.5,0.7c0.2-0.2,0.5-0.4,0.7-0.6
		C98.2,30.1,98.3,29.8,98.3,29.5z"/>
	<path fill="#005BAB" d="M105,36.3v-13h1.9v13H105z"/>
	<g>
		<linearGradient id="SVGID_4_" gradientUnits="userSpaceOnUse" x1="86.798" y1="40.8783" x2="88.4574" y2="47.3343">
			<stop  offset="0" style="stop-color:#ED7300"/>
			<stop  offset="0.1166" style="stop-color:#E75F03"/>
			<stop  offset="0.3874" style="stop-color:#DA3708"/>
			<stop  offset="0.6343" style="stop-color:#D1190C"/>
			<stop  offset="0.8466" style="stop-color:#CB070E"/>
			<stop  offset="1" style="stop-color:#C9010F"/>
		</linearGradient>
		<path fill="url(#SVGID_4_)" d="M87.3,46.9c-0.9,0-1.7-0.2-2.3-0.7c-0.6-0.5-1-1.3-1-2.4h1.4c0,0.7,0.2,1.1,0.6,1.4
			c0.4,0.3,0.9,0.4,1.4,0.4c0.6,0,1-0.1,1.3-0.4c0.3-0.3,0.4-0.6,0.4-0.9c0-0.3-0.1-0.6-0.2-0.7c-0.1-0.2-0.3-0.3-0.5-0.3
			c-0.3-0.1-0.6-0.2-1-0.3c-0.4-0.1-0.8-0.2-1.4-0.4c-0.7-0.2-1.1-0.5-1.4-0.9c-0.2-0.4-0.4-0.8-0.4-1.3c0-0.9,0.3-1.5,0.9-1.9
			c0.6-0.4,1.3-0.6,2-0.6c0.8,0,1.5,0.2,2.2,0.7c0.6,0.5,0.9,1.2,0.9,2.1h-1.4c0-0.6-0.2-1-0.5-1.2C88,39.1,87.6,39,87.2,39
			c-0.3,0-0.6,0.1-1,0.2c-0.3,0.2-0.5,0.5-0.5,0.9c0,0.3,0.1,0.5,0.3,0.7c0.2,0.2,0.4,0.3,0.7,0.4c0.1,0,0.4,0.1,1,0.3
			c0.6,0.2,1.1,0.3,1.3,0.4c0.5,0.2,0.9,0.5,1.2,0.9c0.3,0.4,0.4,0.9,0.4,1.3c0,1-0.3,1.7-1,2.1C88.8,46.6,88.1,46.9,87.3,46.9z"/>
		<linearGradient id="SVGID_5_" gradientUnits="userSpaceOnUse" x1="92.9779" y1="39.2884" x2="94.6376" y2="45.7453">
			<stop  offset="0" style="stop-color:#ED7300"/>
			<stop  offset="0.1166" style="stop-color:#E75F03"/>
			<stop  offset="0.3874" style="stop-color:#DA3708"/>
			<stop  offset="0.6343" style="stop-color:#D1190C"/>
			<stop  offset="0.8466" style="stop-color:#CB070E"/>
			<stop  offset="1" style="stop-color:#C9010F"/>
		</linearGradient>
		<path fill="url(#SVGID_5_)" d="M97,43.5c0,1-0.3,1.8-0.8,2.4c-0.5,0.6-1.2,0.9-2.2,0.9c-0.9,0-1.6-0.3-2.1-0.9
			c-0.5-0.6-0.8-1.4-0.8-2.4c0-1,0.3-1.8,0.8-2.4c0.5-0.6,1.2-0.9,2.1-0.9c0.9,0,1.6,0.3,2.2,0.9C96.7,41.8,97,42.5,97,43.5z
			 M92.4,43.5c0,0.5,0.1,1,0.4,1.5c0.3,0.5,0.7,0.7,1.2,0.7c0.6,0,1-0.2,1.2-0.7c0.3-0.5,0.4-1,0.4-1.5c0-0.5-0.1-1-0.4-1.5
			c-0.3-0.5-0.7-0.7-1.2-0.7c-0.6,0-1,0.2-1.2,0.7C92.5,42.5,92.4,43,92.4,43.5z"/>
		<linearGradient id="SVGID_6_" gradientUnits="userSpaceOnUse" x1="97.6216" y1="38.096" x2="99.2807" y2="44.5508">
			<stop  offset="0" style="stop-color:#ED7300"/>
			<stop  offset="0.1166" style="stop-color:#E75F03"/>
			<stop  offset="0.3874" style="stop-color:#DA3708"/>
			<stop  offset="0.6343" style="stop-color:#D1190C"/>
			<stop  offset="0.8466" style="stop-color:#CB070E"/>
			<stop  offset="1" style="stop-color:#C9010F"/>
		</linearGradient>
		<path fill="url(#SVGID_6_)" d="M98.1,46.7V38h1.3v8.7H98.1z"/>
		<linearGradient id="SVGID_7_" gradientUnits="userSpaceOnUse" x1="101.8115" y1="37.0182" x2="103.4707" y2="43.4735">
			<stop  offset="0" style="stop-color:#ED7300"/>
			<stop  offset="0.1166" style="stop-color:#E75F03"/>
			<stop  offset="0.3874" style="stop-color:#DA3708"/>
			<stop  offset="0.6343" style="stop-color:#D1190C"/>
			<stop  offset="0.8466" style="stop-color:#CB070E"/>
			<stop  offset="1" style="stop-color:#C9010F"/>
		</linearGradient>
		<path fill="url(#SVGID_7_)" d="M105.8,40.4v6.3h-1.3v-0.9h0c-0.2,0.3-0.4,0.6-0.7,0.8c-0.3,0.2-0.6,0.3-0.9,0.3
			c-0.8,0-1.3-0.2-1.6-0.6c-0.3-0.4-0.5-1-0.5-1.8v-4h1.3v3.9c0,0.5,0.1,0.9,0.3,1.2c0.2,0.2,0.5,0.3,0.8,0.3c0.5,0,0.9-0.2,1.1-0.5
			c0.2-0.3,0.3-0.7,0.3-1.2v-3.6H105.8z"/>
		<linearGradient id="SVGID_8_" gradientUnits="userSpaceOnUse" x1="106.8744" y1="35.717" x2="108.5337" y2="42.1729">
			<stop  offset="0" style="stop-color:#ED7300"/>
			<stop  offset="0.1166" style="stop-color:#E75F03"/>
			<stop  offset="0.3874" style="stop-color:#DA3708"/>
			<stop  offset="0.6343" style="stop-color:#D1190C"/>
			<stop  offset="0.8466" style="stop-color:#CB070E"/>
			<stop  offset="1" style="stop-color:#C9010F"/>
		</linearGradient>
		<path fill="url(#SVGID_8_)" d="M106.6,41.4v-1h1v-1.9h1.3v1.9h1.2v1h-1.2v3.4c0,0.3,0,0.5,0.1,0.6c0.1,0.1,0.2,0.2,0.5,0.2
			c0.1,0,0.2,0,0.3,0c0.1,0,0.2,0,0.3,0v1.1c-0.1,0-0.3,0-0.4,0c-0.1,0-0.3,0-0.4,0c-0.7,0-1.1-0.1-1.3-0.4
			c-0.2-0.3-0.3-0.7-0.3-1.2v-3.7H106.6z"/>
		<linearGradient id="SVGID_9_" gradientUnits="userSpaceOnUse" x1="109.6417" y1="35.0069" x2="111.3008" y2="41.4618">
			<stop  offset="0" style="stop-color:#ED7300"/>
			<stop  offset="0.1166" style="stop-color:#E75F03"/>
			<stop  offset="0.3874" style="stop-color:#DA3708"/>
			<stop  offset="0.6343" style="stop-color:#D1190C"/>
			<stop  offset="0.8466" style="stop-color:#CB070E"/>
			<stop  offset="1" style="stop-color:#C9010F"/>
		</linearGradient>
		<path fill="url(#SVGID_9_)" d="M110.9,39.3V38h1.3v1.3H110.9z M110.9,46.7v-6.3h1.3v6.3H110.9z"/>
		<linearGradient id="SVGID_10_" gradientUnits="userSpaceOnUse" x1="113.7318" y1="33.9536" x2="115.3914" y2="40.4101">
			<stop  offset="0" style="stop-color:#ED7300"/>
			<stop  offset="0.1166" style="stop-color:#E75F03"/>
			<stop  offset="0.3874" style="stop-color:#DA3708"/>
			<stop  offset="0.6343" style="stop-color:#D1190C"/>
			<stop  offset="0.8466" style="stop-color:#CB070E"/>
			<stop  offset="1" style="stop-color:#C9010F"/>
		</linearGradient>
		<path fill="url(#SVGID_10_)" d="M119.1,43.5c0,1-0.3,1.8-0.8,2.4c-0.5,0.6-1.2,0.9-2.2,0.9c-0.9,0-1.6-0.3-2.1-0.9
			c-0.5-0.6-0.8-1.4-0.8-2.4c0-1,0.3-1.8,0.8-2.4c0.5-0.6,1.2-0.9,2.1-0.9c0.9,0,1.6,0.3,2.2,0.9C118.8,41.8,119.1,42.5,119.1,43.5z
			 M114.5,43.5c0,0.5,0.1,1,0.4,1.5c0.3,0.5,0.7,0.7,1.2,0.7c0.6,0,1-0.2,1.2-0.7c0.3-0.5,0.4-1,0.4-1.5c0-0.5-0.1-1-0.4-1.5
			c-0.3-0.5-0.7-0.7-1.2-0.7c-0.6,0-1,0.2-1.2,0.7C114.7,42.5,114.5,43,114.5,43.5z"/>
		<linearGradient id="SVGID_11_" gradientUnits="userSpaceOnUse" x1="119.6489" y1="32.4333" x2="121.3082" y2="38.8889">
			<stop  offset="0" style="stop-color:#ED7300"/>
			<stop  offset="0.1166" style="stop-color:#E75F03"/>
			<stop  offset="0.3874" style="stop-color:#DA3708"/>
			<stop  offset="0.6343" style="stop-color:#D1190C"/>
			<stop  offset="0.8466" style="stop-color:#CB070E"/>
			<stop  offset="1" style="stop-color:#C9010F"/>
		</linearGradient>
		<path fill="url(#SVGID_11_)" d="M120.2,46.7v-6.3h1.2v0.9l0,0c0.2-0.3,0.4-0.6,0.8-0.8c0.3-0.2,0.7-0.3,1-0.3
			c0.6,0,1.1,0.2,1.5,0.5c0.4,0.4,0.6,0.9,0.6,1.6v4.3H124v-3.9c0-0.5-0.1-0.9-0.3-1.1c-0.2-0.2-0.5-0.3-0.8-0.3
			c-0.4,0-0.8,0.2-1,0.5c-0.3,0.3-0.4,0.7-0.4,1.2v3.7H120.2z"/>
	</g>
</g>
</svg>
